<svg width="81" height="32" viewBox="0 0 81 32" fill="none" xmlns="http://www.w3.org/2000/svg">
<path d="M42.5674 23.6233H40.6435L38.7505 18.9074L36.8438 23.6233H34.9198L32.0029 16.3781H34.2525L35.8818 20.9861L37.7278 16.3781H39.7595L41.6055 20.9861L43.2347 16.3781H45.4843L42.5674 23.6233Z" fill="white"/>
<path d="M52.7581 20.7224H47.9024C48.0881 21.6684 48.9102 22.072 50.0121 22.072C50.7518 22.0582 51.4848 21.9274 52.1837 21.6844V23.4387C51.4857 23.6851 50.7522 23.816 50.0121 23.8262C47.344 23.8262 45.7617 22.3838 45.7617 20.0093C45.7617 17.7161 47.1376 16.1774 49.3299 16.1774C51.5634 16.1774 52.8051 17.7138 52.8051 20.0093C52.8055 20.2478 52.7898 20.486 52.7581 20.7224ZM49.3299 17.8056C48.6167 17.8056 48.0571 18.286 47.9333 19.0771H50.7562C50.6174 18.2092 50.0591 17.8056 49.3299 17.8056Z" fill="white"/>
<path d="M57.6609 23.825C56.5452 23.7976 55.4363 23.6413 54.3564 23.3595V12.2515H56.4203V16.3792C56.8233 16.2567 57.2409 16.1889 57.662 16.1774C60.0045 16.1774 61.3849 17.7436 61.3849 20.0092C61.3849 22.2748 60.0045 23.825 57.6609 23.825ZM57.6609 17.9293C57.2421 17.9291 56.825 17.9811 56.4191 18.0841V21.932C56.827 22.0222 57.2432 22.0691 57.6609 22.0719C58.6538 22.0719 59.2122 21.3587 59.2122 20.0081C59.2122 18.6574 58.6538 17.9351 57.6609 17.9351V17.9293Z" fill="white"/>
<path d="M64.9989 23.6233H62.9351V16.3781H64.9989V23.6233Z" fill="white"/>
<path d="M71.7786 23.6232L69.9016 21.3748L69.1415 22.2439V23.6198H67.0776V12.2515H69.1415V19.4967L71.7786 16.378H74.2139L71.0803 20.0081L74.2139 23.6232H71.7786Z" fill="white"/>
<path d="M77.3727 23.825C76.5155 23.816 75.6639 23.6856 74.8434 23.4374V21.6843C75.6663 21.9218 76.5164 22.052 77.3727 22.0719C78.2728 22.0719 78.5365 21.7921 78.5365 21.4986C78.5365 21.2051 78.3072 20.9861 77.6834 20.9861C75.8214 20.9861 74.7356 20.2419 74.7356 18.6585C74.7356 17.4168 75.8524 16.1762 77.993 16.1762C78.8552 16.1841 79.7118 16.3146 80.5372 16.5637V18.3329C79.7118 18.082 78.8556 17.9462 77.993 17.9293C77.093 17.9293 76.8292 18.2091 76.8292 18.5026C76.8292 18.7961 77.0781 19.014 77.6823 19.014C79.5592 19.014 80.6301 19.7592 80.6301 21.3415C80.6301 22.5832 79.5294 23.825 77.3727 23.825Z" fill="white"/>
<path d="M65.007 13.1389H62.9363V15.2096H65.007V13.1389Z" fill="white"/>
<path opacity="0.5" d="M28.0953 2.04472L19.7139 0.915344L14.4844 7.69961L22.8635 8.76363L28.0953 2.04472Z" fill="white"/>
<path d="M26.2849 17.3755L21.1333 24.0612L24.3907 31.8946L29.5457 25.2077L26.2849 17.3755Z" fill="white"/>
<path opacity="0.78" d="M13.9662 7.91293L5.59967 6.76636L0.416016 13.5025L8.77682 14.6307L13.9662 7.91293Z" fill="white"/>
<path d="M20.8742 24.1667L12.4446 23.0774L15.6664 30.8569L24.1362 32L20.8742 24.1667Z" fill="white"/>
<path opacity="0.78" d="M0.370117 13.7822L3.61147 21.6076L11.9918 22.7347L8.7378 14.9093L0.370117 13.7822Z" fill="white"/>
<path d="M26.0613 17.2025L17.6787 16.0674L12.479 22.8L20.9098 23.887L26.0613 17.2025Z" fill="white"/>
<path opacity="0.5" d="M26.3582 16.8137L31.5751 10.0627L28.3154 2.21902L23.0881 8.93564L26.3582 16.8137Z" fill="white"/>
<path opacity="0.78" d="M17.4587 15.8954L14.1864 8.08491L8.99927 14.8027L12.2532 22.628L17.4587 15.8954Z" fill="white"/>
<path opacity="0.5" d="M26.6526 16.9456L23.3803 9.06516L15 8L18.2723 15.8104L26.6526 16.9456Z" fill="white"/>
</svg>
